<svg width="10" height="16" viewBox="0 0 10 16" fill="none" xmlns="http://www.w3.org/2000/svg">
<path d="M2.54384 14.825L8.86259 8.52505C8.93759 8.45005 8.99084 8.3688 9.02234 8.2813C9.05384 8.1938 9.06934 8.10005 9.06884 8.00005C9.06884 7.90005 9.05309 7.8063 9.02159 7.7188C8.99009 7.6313 8.93709 7.55005 8.86259 7.47505L2.54384 1.1563C2.36883 0.981299 2.15008 0.893799 1.88759 0.893799C1.62508 0.893799 1.40009 0.987549 1.21259 1.17505C1.02509 1.36255 0.931335 1.5813 0.931335 1.8313C0.931335 2.0813 1.02509 2.30005 1.21259 2.48755L6.72509 8.00005L1.21259 13.5125C1.03759 13.6875 0.950085 13.9033 0.950085 14.1598C0.950085 14.4163 1.04383 14.638 1.23134 14.825C1.41884 15.0125 1.63759 15.1063 1.88759 15.1063C2.13759 15.1063 2.35634 15.0125 2.54384 14.825Z" fill="black"/>
</svg>
