<svg width="11" height="8" viewBox="0 0 11 8" fill="none" xmlns="http://www.w3.org/2000/svg">
<path d="M0.488447 2.14675L5.24199 6.91444C5.29858 6.97103 5.35988 7.01121 5.42591 7.03497C5.49193 7.05874 5.56266 7.07044 5.63812 7.07006C5.71357 7.07006 5.78431 7.05818 5.85033 7.03441C5.91635 7.01064 5.97766 6.97065 6.03425 6.91444L10.8019 2.14675C10.934 2.01471 11 1.84965 11 1.65159C11 1.45352 10.9293 1.28375 10.7878 1.14228C10.6463 1.00081 10.4813 0.930069 10.2926 0.930069C10.104 0.930069 9.93894 1.00081 9.79747 1.14228L5.63812 5.30163L1.47877 1.14228C1.34673 1.01024 1.18394 0.944216 0.990399 0.944216C0.796863 0.944216 0.629544 1.01495 0.488447 1.15643C0.346973 1.2979 0.276236 1.46296 0.276236 1.65159C0.276236 1.84022 0.346973 2.00527 0.488447 2.14675Z" fill="black"/>
</svg>
